<svg width="2771" height="852" viewBox="0 0 2771 852" fill="none" xmlns="http://www.w3.org/2000/svg">
<g clip-path="url(#clip0_53_30)">
<path d="M192.887 222.811H533.24L484.084 308.041H340.39L412.2 432.516L363.043 517.745L192.887 222.811Z" fill="black"/>
<path d="M0 111.405H226.939L276.059 196.595H147.506L363.043 570.18L427.34 458.734L476.495 543.961L363.043 740.594L0 111.405Z" fill="black"/>
<path d="M707.211 196.595L771.468 85.1892H340.352L404.649 196.595H306.299L192.887 0H918.975L805.561 196.595H707.211Z" fill="black"/>
<path d="M506.774 321.149L578.619 196.595H434.891L385.735 111.405H726.089L555.93 406.338L506.774 321.149Z" fill="black"/>
<path d="M442.479 655.369L491.635 570.178L555.932 681.583L771.469 308.041H642.88L692.071 222.811H918.975L844.062 352.648H768.41L678.121 610.805H695.096L555.93 852L442.479 655.369Z" fill="black"/>
<path d="M1761.25 780.371C1755.21 780.371 1750.3 775.454 1750.3 769.412V721.963C1750.3 719.714 1752.54 717.746 1755.75 717.174C1759.54 716.492 1760.89 714.371 1760.89 712.757C1760.89 711.144 1759.54 709.026 1755.75 708.344C1752.54 707.772 1750.3 705.801 1750.3 703.552V656.106C1750.3 650.064 1755.21 645.147 1761.25 645.147H1848.99C1855.02 645.147 1859.94 650.064 1859.94 656.106V703.552C1859.94 705.801 1857.7 707.772 1854.48 708.344C1850.7 709.026 1849.35 711.148 1849.35 712.757C1849.35 714.367 1850.69 716.492 1854.48 717.174C1857.7 717.746 1859.94 719.714 1859.94 721.963V769.412C1859.94 775.454 1855.02 780.371 1848.99 780.371H1761.25ZM1786.43 755.653H1823.8V721.589H1786.43V755.653ZM1786.43 701.078H1823.8V672.732H1786.43V701.078Z" fill="#F7EC13"/>
<path d="M1668.2 700.569V672.63H1729.73L1740.43 645.149H1642.45C1636.39 645.149 1631.47 650.089 1631.5 656.162L1632.07 769.468C1632.1 775.498 1636.99 780.371 1643.02 780.371H1730.76C1736.8 780.371 1741.71 775.465 1741.71 769.412V711.527C1741.71 705.475 1736.81 700.567 1730.76 700.567H1668.2V700.569ZM1705.57 752.463H1668.21V726.832H1705.57V752.463Z" fill="#F7EC13"/>
<path d="M1396.02 780.371V755.655H1469.52V724.442H1434.71V703.933H1469.52V675.824H1396.02V645.149H1494.71C1500.74 645.149 1505.66 650.066 1505.66 656.108V703.558C1505.66 705.806 1503.42 707.774 1500.21 708.346C1496.41 709.028 1495.07 711.157 1495.07 712.771C1495.07 714.373 1496.42 716.494 1500.21 717.176C1503.42 717.748 1505.66 719.719 1505.66 721.964V769.414C1505.66 775.456 1500.74 780.373 1494.71 780.373H1396.02V780.371Z" fill="#F7EC13"/>
<path d="M1550.41 725.163V755.653H1623.91V780.373H1525.23C1519.18 780.373 1514.27 775.467 1514.27 769.414V705.446C1514.27 699.395 1519.18 694.487 1525.23 694.487H1587.78V675.824H1514.28V645.149H1612.96C1619.01 645.149 1623.91 650.055 1623.91 656.108V725.163H1550.41H1550.41Z" fill="#F7EC13"/>
<path d="M1093.48 780.208V645.149H1278.33V780.208H1239.11V674.486H1204.63V780.208L1166.14 780.371V674.598H1133.13V780.371L1093.48 780.208Z" fill="#F7EC13"/>
<path d="M1013.6 780.371V757.423H1045.21L1018.58 681.321L983.94 780.371H952.316L999.609 645.149H1037.56L1084.85 780.371H1013.6Z" fill="#F7EC13"/>
<path d="M833.026 780.371V645.149H937.693L928.468 668.656H865.961V701.779H928.52V725.63H866.093V754.935H937.893L928.289 780.371H833.026Z" fill="#F7EC13"/>
<path d="M750.489 780.371V668.714H713.683V645.149H822.135V668.071H784.53V780.371H750.489Z" fill="#F7EC13"/>
<path d="M2591.09 378.862V413.858H2558.82V651.154L2510.33 668.814V413.858H2452.97V378.862H2591.09Z" fill="#F7EC13"/>
<path d="M2771 484.869V563.795C2771 575.28 2761.7 584.589 2750.22 584.589H2624.49L2610.58 546.357H2719.04V499.415H2629.68C2618.2 499.415 2608.89 490.106 2608.89 478.621V399.657C2608.89 388.172 2618.2 378.862 2629.68 378.862H2769.4L2755.98 415.734H2660.84V464.075H2750.22C2761.69 464.075 2771 473.384 2771 484.869H2771Z" fill="#F7EC13"/>
<path d="M1966.37 584.591V549.547H2014.39L1974.03 434.162L1921.42 584.591H1873.18L1945.13 378.862H2002.94L2074.89 584.591H1966.37Z" fill="#F7EC13"/>
<path d="M1388.67 584.591V549.547H1436.69L1396.33 434.162L1343.71 584.591H1295.48L1367.43 378.862H1425.24L1497.19 584.591H1388.67Z" fill="#F7EC13"/>
<path d="M1229.59 584.591V500.093H1161.7V584.591H1115.27V378.862H1161.7V463.358H1229.59V378.862H1276.02V584.591H1229.59Z" fill="#F7EC13"/>
<path d="M808.203 584.591V549.547H856.225L815.863 434.162L763.247 584.591H715.008L786.962 378.862H844.768L916.722 584.591H808.203Z" fill="#F7EC13"/>
<path d="M2414.54 584.591H2296.68C2285.2 584.591 2275.89 575.282 2275.89 563.797V399.659C2275.89 388.174 2285.2 378.864 2296.68 378.864H2414.54C2426.02 378.864 2435.32 388.174 2435.32 399.659V563.797C2435.32 575.282 2426.02 584.591 2414.54 584.591ZM2326.43 547.242H2384.79V416.406H2326.43V547.242Z" fill="#F7EC13"/>
<path d="M2095.72 584.591V378.864H2234.39C2245.86 378.864 2255.17 388.174 2255.17 399.659V455.434C2255.17 463.145 2250.8 470.084 2244.55 472.308C2240.58 473.721 2237.91 477.501 2237.91 481.709C2237.91 485.918 2240.58 489.74 2244.56 491.146C2250.8 493.354 2255.17 500.286 2255.17 508.003V563.799C2255.17 575.284 2245.86 584.593 2234.38 584.593H2095.72L2095.72 584.591ZM2142.87 550.388H2204.96V492.827H2142.87V550.388ZM2142.99 464.935H2204.85V416.281H2142.99V464.935Z" fill="#F7EC13"/>
<path d="M1696.63 584.591V378.862H1744.27V547.699H1839.25L1851.93 584.591H1696.63Z" fill="#F7EC13"/>
<path d="M937.475 584.591V378.862H985.073V547.91H1081.09L1093.48 584.591H937.475Z" fill="#F7EC13"/>
<path d="M1518.74 584.591V378.862H1566.36V547.695H1661.34L1674.03 584.591H1518.74Z" fill="#F7EC13"/>
<path d="M385.771 334.524H484.084L555.93 459.036L627.778 334.524H726.087L555.93 629.418L385.771 334.524Z" fill="#F7EC13"/>
</g>
<defs>
<clipPath id="clip0_53_30">
<rect width="2771" height="852" fill="white"/>
</clipPath>
</defs>
</svg>
